<?xml version="1.0" encoding="UTF-8" standalone="no"?>
<!DOCTYPE svg PUBLIC "-//W3C//DTD SVG 1.1//EN" "http://www.w3.org/Graphics/SVG/1.1/DTD/svg11.dtd">
<svg width="100%" height="100%" viewBox="0 0 314 209" version="1.1" xmlns="http://www.w3.org/2000/svg" xmlns:xlink="http://www.w3.org/1999/xlink" xml:space="preserve" xmlns:serif="http://www.serif.com/" style="fill-rule:evenodd;clip-rule:evenodd;stroke-linejoin:round;stroke-miterlimit:2;">
    <g transform="matrix(1,0,0,1,-42.004,-71.8994)">
        <g id="g3261" transform="matrix(6.6246,0,0,-6.6246,-7574.36,596.214)">
            <g id="GetFile">
                <g id="g32611" serif:id="g3261">
                    <g id="g54">
                        <g id="g56">
                            <g id="g62" transform="matrix(1,0,0,1,1183.01,47.6816)">
                                <path id="path64" d="M0,0L-14.064,0L-14.064,25.336L-7,25.336L-7,4.488L-0.206,4.488C4.484,4.488 6.454,7.737 6.454,16.104C6.454,24.521 4.216,26.967 -0.545,26.967L-16.04,26.967L-16.04,0L-23.035,0L-23.035,26.967L-33.3,26.967L-33.3,31.465L1.634,31.465C10.06,31.465 14.063,27.105 14.063,16.171C14.063,1.766 8.086,0 0,0" style="fill:white;fill-rule:nonzero;"/>
                            </g>
                        </g>
                    </g>
                </g>
            </g>
        </g>
    </g>
</svg>
