<?xml version="1.0" encoding="UTF-8" standalone="no"?>
<!DOCTYPE svg PUBLIC "-//W3C//DTD SVG 1.1//EN" "http://www.w3.org/Graphics/SVG/1.1/DTD/svg11.dtd">
<svg width="100%" height="100%" viewBox="0 0 71 71" version="1.1" xmlns="http://www.w3.org/2000/svg" xmlns:xlink="http://www.w3.org/1999/xlink" xml:space="preserve" xmlns:serif="http://www.serif.com/" style="fill-rule:evenodd;clip-rule:evenodd;stroke-linejoin:round;stroke-miterlimit:2;">
    <g transform="matrix(1,0,0,1,0,-0.4)">
        <g>
            <g>
                <path d="M28.1,0.8C28.9,0.6 29.7,0.5 30.5,0.4L34.2,21.6C33.4,21.7 32.6,21.8 31.8,22L28.1,0.8ZM27.2,24.2C28,23.6 28.8,23.2 29.7,22.8L19,4.1C18.2,4.6 17.3,5 16.5,5.5L27.2,24.2ZM21.1,35.9C21.1,35.1 21.2,34.3 21.3,33.6L0.1,33.6C0,34.3 0,35 0,35.8C0,36.5 0,37.2 0.1,37.9L21.3,37.9C21.2,37.2 21.1,36.6 21.1,35.9M49.9,35.9C49.9,43.9 43.5,50.3 35.5,50.3C28.4,50.3 22.5,45.1 21.3,38.3L1.3,45.6C1.7,47.2 2.3,48.7 2.9,50.1L22.7,42.8L6.6,56.6C7.6,58 8.8,59.4 10,60.7L25.1,47.9L15.2,65.2C16.8,66.3 18.4,67.3 20.2,68.1L29.5,51.8L26.3,70.3C28.3,70.8 30.3,71.2 32.4,71.4L35.4,54.1L38.4,71.4C40.6,71.2 42.7,70.8 44.8,70.3L42,54.3L50.1,68.4C52.3,67.4 54.4,66.2 56.4,64.7L49,51.7L60.4,61.3C62.2,59.5 63.8,57.5 65.2,55.4L55,46.8L67.4,51.4C68.6,49 69.4,46.5 70,43.8L59.1,39.8L70.7,39.8C70.8,38.5 70.9,37.1 70.9,35.7C70.9,34.1 70.8,32.5 70.6,31L49.1,31C49.6,32.6 49.9,34.2 49.9,35.9M21.5,32.6C21.8,31.3 22.3,30.1 22.9,29L2.9,21.7C2.4,22.9 2,24.1 1.6,25.3L21.5,32.6ZM62.3,12.3L46,26C46.4,26.4 46.8,26.9 47.1,27.3L63.4,13.6C63.1,13.2 62.7,12.7 62.3,12.3M54.2,5.4C53.6,5 53,4.7 52.5,4.4L41.8,22.9C42.4,23.2 43,23.5 43.6,23.9L54.2,5.4ZM25.8,25.3L9.4,11.5C8.6,12.3 7.9,13.2 7.2,14.1L23.5,27.9C24.2,26.9 24.9,26.1 25.8,25.3M37,21.6C37.7,21.7 38.4,21.8 39.1,22L42.8,0.8C42.1,0.7 41.4,0.5 40.7,0.4L37,21.6Z" style="fill-rule:nonzero;"/>
            </g>
        </g>
    </g>
</svg>
