<?xml version="1.0" encoding="UTF-8" standalone="no"?>
<!DOCTYPE svg PUBLIC "-//W3C//DTD SVG 1.1//EN" "http://www.w3.org/Graphics/SVG/1.1/DTD/svg11.dtd">
<svg width="100%" height="100%" viewBox="0 0 378 412" version="1.1" xmlns="http://www.w3.org/2000/svg" xmlns:xlink="http://www.w3.org/1999/xlink" xml:space="preserve" xmlns:serif="http://www.serif.com/" style="fill-rule:evenodd;clip-rule:evenodd;stroke-linejoin:round;stroke-miterlimit:2;">
    <g transform="matrix(1,0,0,1,11.9375,2.625)">
        <path d="M0,0C3.063,0.375 3.063,0.375 4.683,1.812C6.753,5.659 6.867,9.446 7.191,13.758C7.27,14.687 7.349,15.615 7.43,16.572C8.178,25.845 8.563,35.13 8.897,44.425C9.664,65.412 10.47,86.644 14.063,107.375C14.172,106.802 14.282,106.229 14.395,105.638C15.566,99.533 16.754,93.431 17.95,87.331C18.392,85.071 18.805,82.805 19.262,80.548C31.317,20.944 40.347,11.627 45.301,8.336C49.274,6.169 49.678,5.561 57.063,6.375C64.101,7.997 65.196,11.31 68.063,16.375C69.095,19.454 69.801,22.581 70.5,25.75C70.924,27.545 71.351,29.339 71.781,31.133C71.994,32.02 72.207,32.907 72.426,33.821C75.367,45.618 90.81,110.854 110.039,110.394C121.632,110.116 136.247,75.16 151.36,45.737C162.688,23.682 169.602,6.798 180,3.508C184.957,1.939 189.319,2.243 194.063,4.375C202.915,11.216 204.511,21.945 206.063,32.375C206.825,38.938 207.243,45.534 207.688,52.125C207.868,54.704 209.072,70.404 210.063,73.375C210.604,73.154 211.146,72.932 211.705,72.704C224.008,67.725 235.999,63.761 249.063,61.375C250.434,61.113 250.434,61.113 251.833,60.847C257.577,60.008 263.368,60.11 269.163,60.08C270.661,60.068 272.16,60.048 273.659,60.018C298.356,59.529 321.571,68.038 339.719,85.066C354.292,99.421 362.905,116.567 363.305,137.272C363.397,162.043 358.411,176.969 337.039,197.48C319.504,214.31 265.117,227.153 262.055,227.961C260.204,228.434 258.352,228.906 256.5,229.375C255.674,229.595 254.849,229.815 253.998,230.042C248.558,231.377 243.55,231.77 238.063,230.375C235.106,228.342 233.551,226.888 232.438,223.441C231.819,220.032 231.905,217.729 233.313,214.563C236.219,210.929 238.143,209.09 242.676,207.762C243.587,207.487 244.498,207.212 245.437,206.928C246.407,206.643 247.376,206.357 248.375,206.063C269.362,199.588 286.873,190.266 303.063,175.375C303.98,174.54 304.898,173.704 305.844,172.844C316.438,162.76 322.238,152.728 323.09,138.047C323.023,129.043 320.39,121.557 315.063,114.375C314.227,113.107 314.227,113.107 313.375,111.813C304.783,102.756 292.397,96.698 279.902,96.137C256.405,95.595 235.376,101.606 215.063,113.375C216.093,121.692 226.314,204.04 225.788,230.664C225.569,241.747 223.999,282.988 221.935,305.214C221.219,312.92 218.744,328.854 213.664,350.233C209.495,367.775 202.098,383.325 195.063,393.375C194.615,394.017 194.168,394.659 193.707,395.32C189.244,401.096 182.962,405.075 176.063,407.375C165.396,408.28 157.546,407.475 148.957,400.719C116.582,371.161 109.398,303.858 107.203,262.759C104.727,203.169 120.69,153.763 161.063,109.375C166.324,103.737 168.428,101.856 170.171,100.431C171.193,99.595 180.306,91.594 181.868,88.612C182.026,85.354 181.543,63.937 181.406,61.42C181.06,55.266 179.512,44.522 179.063,38.375C174.217,47.947 169.524,57.567 165.048,67.318C137.149,127.946 137.149,127.946 119.063,136.375C111.889,138.766 104.277,137.932 97.465,134.801C77.443,122.918 70.412,92.859 63.163,72.459C59.322,61.695 55.434,50.936 51.063,40.375C35.681,74.903 30.018,117.604 29.528,155.138C29.366,161.936 28.455,168.56 23.938,173.875C20,175.93 16.495,176.571 12.063,176.375C7.318,174.764 4.724,172.596 2.063,168.375C-1.058,160.427 -2.248,152.282 -3.438,143.875C-3.544,143.14 -3.65,142.405 -3.76,141.648C-6.119,125.283 -7.734,108.864 -8.938,92.375C-8.986,91.715 -9.034,91.054 -9.084,90.374C-9.916,78.727 -10.138,67.112 -10.125,55.438C-10.125,54.549 -10.124,53.661 -10.124,52.745C-10.108,41.537 -9.935,30.371 -9.125,19.188C-9.055,18.157 -8.985,17.126 -8.913,16.065C-8.371,9.741 -7.582,0.968 0,0ZM175.979,137.822C170.551,143.272 166.786,149.42 162.486,155.409C156.032,164.4 150.805,173.961 146.673,183.975C137.648,205.846 133.846,229.874 133.879,254.834C134.244,292.305 136.908,332.02 152.594,366.211C152.899,366.882 158.775,380.248 167.063,380.375C175.181,380.5 179.018,369.436 181.46,363.058C189.394,341.216 190.193,317.348 193.063,294.375C193.892,287.737 194.18,281.012 194.746,267.617C195.297,254.566 195.39,240.828 195.399,239.441C195.458,230.289 194.612,216.108 193.418,200.946C190.917,169.182 187.397,131.315 186.945,128.129C184.758,128.129 177.366,136.459 175.979,137.822Z" style="fill-rule:nonzero;"/>
    </g>
</svg>
